<?xml version="1.0" standalone="no"?>
<!DOCTYPE svg PUBLIC "-//W3C//DTD SVG 20010904//EN"
 "http://www.w3.org/TR/2001/REC-SVG-20010904/DTD/svg10.dtd">
<svg version="1.0" xmlns="http://www.w3.org/2000/svg"
 width="128.000000pt" height="128.000000pt" viewBox="0 0 128.000000 128.000000"
 preserveAspectRatio="xMidYMid meet">

<g transform="translate(0.000000,128.000000) scale(0.100000,-0.100000)"
fill="#000000" stroke="none">
<path d="M775 1241 c3 -5 0 -13 -6 -17 -6 -3 -9 -19 -5 -35 3 -17 1 -29 -5
-29 -5 0 -8 -12 -7 -27 2 -18 -1 -27 -9 -26 -7 2 -16 -9 -19 -23 -5 -18 -10
-22 -17 -15 -18 18 -27 12 -27 -18 0 -38 -9 -43 -51 -31 -19 6 -61 10 -94 10
-33 -1 -88 -1 -122 -1 -75 -1 -87 -17 -43 -57 l29 -27 -13 -59 c-8 -33 -9 -53
-4 -48 6 6 17 8 25 5 8 -3 27 4 43 16 17 12 44 21 65 21 33 0 35 -2 35 -32 0
-17 3 -28 6 -25 4 3 16 1 28 -5 18 -10 19 -9 9 4 -17 19 -4 31 15 15 11 -8 14
-9 9 0 -10 16 50 83 87 98 41 17 55 9 62 -35 4 -22 13 -41 21 -45 12 -4 13 -8
3 -20 -6 -8 -9 -18 -6 -24 3 -5 0 -11 -8 -14 -16 -7 -27 -67 -12 -67 7 0 7 -3
-1 -8 -6 -4 -15 -21 -19 -37 -3 -17 -18 -40 -32 -53 -30 -27 -25 -36 13 -22
42 16 42 4 -1 -18 -26 -13 -33 -21 -24 -27 8 -5 16 -1 22 9 16 28 23 18 25
-34 2 -49 -14 -69 -24 -31 -3 11 -12 22 -20 25 -10 4 -8 -4 7 -24 12 -17 31
-30 42 -30 17 0 18 -3 8 -15 -7 -8 -15 -13 -19 -10 -4 2 -13 -11 -20 -29 -7
-18 -23 -36 -35 -42 -11 -5 -21 -17 -21 -26 0 -26 -11 -31 -36 -17 -13 7 -42
13 -64 15 -58 4 -224 23 -265 30 -33 6 -34 7 -11 15 13 5 67 14 119 19 78 8
104 16 144 40 26 17 53 30 58 30 16 0 12 30 -5 36 -8 4 -13 10 -10 14 3 4 -4
10 -14 13 -12 3 -22 -1 -25 -9 -8 -22 -91 -17 -207 12 -57 14 -109 30 -116 36
-8 6 -15 3 -22 -11 -19 -34 -13 -51 20 -58 41 -8 45 -24 24 -92 -16 -54 -16
-63 -1 -123 9 -35 16 -80 16 -99 0 -19 9 -52 19 -75 30 -65 72 -80 286 -99
300 -28 402 -10 449 80 19 37 21 56 20 235 0 182 -2 204 -32 340 -18 80 -39
195 -47 255 -15 112 -41 237 -56 266 -5 9 -28 22 -53 28 -54 13 -89 14 -81 2z
m75 -368 c0 -36 -14 -43 -29 -15 -12 22 -11 32 1 56 13 25 28 4 28 -41z m51
-83 c26 -14 25 -40 -1 -33 -24 6 -41 -29 -33 -71 4 -20 1 -31 -10 -38 -9 -4
-14 -15 -11 -22 3 -8 1 -17 -5 -21 -6 -3 -12 0 -13 7 -2 23 -5 32 -13 51 -4
10 -5 21 -1 24 3 3 1 12 -5 19 -6 8 -7 14 0 18 6 4 8 12 6 19 -7 21 26 53 58
56 5 1 17 -4 28 -9z m-191 -565 c9 -11 8 -18 -9 -36 -12 -13 -21 -18 -21 -12
0 8 -7 8 -25 0 -14 -7 -25 -16 -25 -20 0 -5 -4 -5 -10 -2 -18 11 -11 23 26 46
27 16 32 24 22 30 -9 6 -7 9 8 9 12 0 27 -7 34 -15z m-129 -58 c-8 -8 -11 -2
-11 19 0 40 14 54 18 19 2 -15 -1 -32 -7 -38z m59 43 c0 -5 -4 -10 -10 -10 -5
0 -10 5 -10 10 0 6 5 10 10 10 6 0 10 -4 10 -10z m-100 -24 c0 -17 -14 -29
-23 -20 -8 8 3 34 14 34 5 0 9 -6 9 -14z"/>
<path d="M463 768 c-17 -18 -29 -38 -26 -45 3 -7 -3 -9 -18 -6 -15 4 -20 2
-17 -7 5 -15 53 -32 62 -22 3 3 6 18 6 33 0 15 4 30 9 33 7 5 23 46 17 46 -1
0 -16 -15 -33 -32z"/>
</g>
</svg>
